<svg width="100" height="50" viewBox="0 0 100 50" fill="none" xmlns="http://www.w3.org/2000/svg">
<g clip-path="url(#clip0_36717_66872)">
<path fill-rule="evenodd" clip-rule="evenodd" d="M36.916 0.865405C36.5628 0.910229 35.9123 1.13995 27.2773 4.24408C23.1264 5.73157 17.2463 7.8438 13.1151 9.32775L13.0947 9.33513L13.0861 9.33819L13.0723 9.34312L13.0712 9.34354L13.0673 9.34492L11.123 10.0433C7.11392 11.4833 3.61506 12.7552 3.34591 12.8729C1.74227 13.5733 0.710548 14.7275 0.177867 16.4421L0.0208662 16.9352L0.00404478 30.7469C-0.00716954 40.6699 0.00404478 44.6818 0.0489021 44.9956C0.32926 46.9455 1.84319 48.7609 3.72159 49.3941C3.77549 49.4122 3.82234 49.4293 3.86632 49.4453H3.86633H3.86637H3.86641C3.90013 49.4576 3.93217 49.4692 3.9644 49.4803C4.57694 49.6909 5.2622 49.6902 18.9572 49.6769L21.7487 49.6742L38.5421 49.6573L39.0187 49.5061C39.9999 49.1979 40.6897 48.8057 41.3344 48.1782C42.3269 47.2256 42.91 46.077 43.0559 44.7938C43.1007 44.4409 43.1119 38.1989 43.1007 24.9196L43.0839 5.56082L42.9549 5.09575C42.697 4.12642 42.282 3.3812 41.6204 2.68081C40.3812 1.36408 38.5309 0.652486 36.916 0.865405ZM31.7574 7.4995C32.8677 7.65078 34.0114 8.13825 34.847 8.80502C35.3964 9.24767 36.2207 10.1834 36.0581 10.1834C36.0301 10.1834 36.0524 10.3179 36.1086 10.486C36.4506 11.5001 36.3777 13.1642 35.9123 14.6939C35.5591 15.8706 34.9087 17.3161 34.2413 18.4032C33.5741 19.479 31.9817 21.625 30.9051 22.8913C29.6323 24.3929 27.7988 26.0458 26.4026 26.9535C25.8699 27.2954 24.8887 27.8332 24.7877 27.8332C24.7372 27.8332 24.7204 25.9113 24.7204 19.916C24.7204 12.2902 24.726 11.9764 24.827 11.573C25.1858 10.1834 26.2512 8.93949 27.7202 8.20549C28.8921 7.62276 30.5519 7.3314 31.7574 7.4995ZM13.3379 13.9935C14.678 14.3689 15.9283 15.3663 16.5059 16.5149C16.5304 16.5635 16.5533 16.6078 16.5748 16.6494C16.6239 16.7443 16.6654 16.8246 16.7007 16.9076C16.896 17.3677 16.8981 17.9098 16.9117 21.4567L16.9152 22.3813C16.9209 25.0708 16.9152 27.2729 16.904 27.2729C16.8536 27.2729 16.2368 26.8359 15.9396 26.5893C15.777 26.4548 15.4013 26.1411 15.0986 25.8834C14.1172 25.0596 13.4388 24.7571 12.4071 24.7123C11.0445 24.645 9.93433 25.1606 9.25587 26.1747C8.8129 26.8415 8.62226 27.5418 8.7344 28.147C8.84655 28.7298 9.02597 29.0154 9.82779 29.8168C11.7287 31.7218 13.8761 33.0385 16.4387 33.8622L16.9321 34.0246L16.9152 36.546C16.8928 38.7873 16.8816 39.1011 16.7919 39.3756C16.1414 41.3647 14.05 42.7039 11.5997 42.6927C10.2427 42.6927 9.07082 42.2276 8.06153 41.2975C7.49521 40.7708 7.02421 40.0199 6.79432 39.286C6.699 38.9723 6.69339 38.4735 6.69339 28.2255V17.4954L6.85039 17.0472C7.04103 16.5037 7.20924 16.2067 7.57371 15.7472C8.30264 14.8452 9.52501 14.1728 10.91 13.9095C11.538 13.7918 12.7771 13.8311 13.3379 13.9935ZM36.8684 35.7823V35.7827C36.8581 41.8927 36.8571 42.5165 36.6318 43.0447C36.6062 43.1046 36.5777 43.1633 36.546 43.2287L36.5459 43.229C36.5232 43.2756 36.499 43.3257 36.473 43.3819C36.2094 43.9478 35.8842 44.4072 35.4189 44.8667C33.6639 46.6093 30.6079 47.2368 28.3258 46.3235C26.5091 45.5951 25.0904 44.0151 24.7764 42.3734C24.7372 42.138 24.7204 40.8773 24.7317 38.1485L24.7484 34.2544L25.3428 34.1087C26.4474 33.8285 27.7707 33.3411 28.7296 32.8648C30.1257 32.1644 31.9144 30.9317 33.4396 29.6206C34.1909 28.9762 35.8113 27.3682 36.4113 26.6678C36.63 26.4157 36.8207 26.2084 36.8487 26.2084C36.8711 26.2084 36.8823 29.8223 36.8711 34.232L36.8684 35.7823ZM50.7937 11.7354C49.7396 11.8475 48.0518 12.3238 47.4799 12.6656C47.065 12.9177 46.8968 13.2483 46.8968 13.8254C46.9023 14.3353 47.0426 14.649 47.3621 14.862C47.7098 15.0917 48.0013 15.0973 48.5844 14.89C49.9639 14.3969 50.575 14.2736 51.5731 14.2736C53.0982 14.2736 53.6198 14.7163 53.6927 16.0779L53.7262 16.6269H52.5824C49.2966 16.6269 47.3509 17.1369 46.622 18.1846C46.1959 18.8009 46.0277 19.8712 46.2182 20.7341C46.5322 22.1461 47.6873 23.1994 49.3134 23.5524C49.9302 23.6868 51.0909 23.6868 51.5787 23.5524C52.4142 23.3227 53.2609 22.6896 53.5469 22.0788C53.6198 21.9163 53.6982 21.7874 53.715 21.7819C53.7319 21.7819 53.7656 21.9276 53.7823 22.1012C53.8664 22.8352 54.0796 23.1939 54.5898 23.4404C54.8758 23.5805 54.9767 23.6029 55.4197 23.6029C56.0252 23.6029 56.3448 23.474 56.6532 23.1098L56.6561 23.1064C56.713 23.0403 56.761 22.9844 56.8014 22.9235C57.0228 22.5912 57.02 22.1098 57.0019 18.9985L57.0009 18.829C56.984 15.4728 56.9784 15.3494 56.8607 14.9012C56.3617 13.0073 55.128 12.0268 52.9244 11.7523C52.4814 11.7018 51.2254 11.6906 50.7937 11.7354ZM53.7094 18.7674C53.7094 19.2044 53.5861 19.7928 53.4403 20.0841C53.2272 20.4931 52.8348 20.8685 52.3749 21.0926C51.9544 21.3 51.9376 21.3056 51.304 21.3056C50.5582 21.3056 50.2891 21.216 49.9358 20.8629C49.6611 20.594 49.5546 20.3755 49.5209 20.0113C49.476 19.5966 49.5826 19.2605 49.8349 19.0195C50.1433 18.717 50.4909 18.5881 51.3545 18.4536C51.4329 18.4424 51.9937 18.4312 52.6048 18.4255L53.7094 18.42V18.7674ZM64.6827 12.2398C65.1704 11.9876 65.4508 11.8811 65.933 11.7803C66.4713 11.6626 67.7441 11.7074 68.2768 11.8587C70.3347 12.4526 71.5907 14.0943 71.8822 16.5765C71.972 17.3498 71.9159 18.7898 71.7701 19.4566C71.243 21.9051 69.7628 23.3675 67.5311 23.6309C65.9442 23.8214 64.3799 23.2555 63.5612 22.2021L63.3257 21.8939L63.2977 24.2921L63.2976 24.3028C63.2697 26.6678 63.2695 26.685 63.1351 26.9816C62.8716 27.5643 62.3781 27.8332 61.5651 27.8332C60.9931 27.8332 60.7744 27.7772 60.4268 27.5587C60.2249 27.4298 60.1297 27.3121 59.9839 27.0151L59.7932 26.6285L59.7763 20.0729C59.7596 13.3043 59.7708 12.9681 59.9839 12.5423C60.2473 12.0268 60.7912 11.7523 61.537 11.7523C62.5351 11.7523 63.1239 12.2565 63.2192 13.1923C63.2416 13.3884 63.2752 13.5453 63.2921 13.5453C63.3144 13.5453 63.3762 13.4556 63.4379 13.3435C63.6004 13.0354 64.2341 12.475 64.6827 12.2398ZM68.2712 16.2909C68.0077 15.3159 67.4301 14.6659 66.6339 14.425C65.7256 14.1504 64.7163 14.3746 64.1219 14.9797C63.8303 15.271 63.5276 15.8482 63.4098 16.3188C63.208 17.1481 63.2416 18.5208 63.4883 19.2885C63.892 20.5548 64.9462 21.2327 66.2302 21.0534C67.2451 20.9077 67.9572 20.2074 68.2712 19.0363C68.417 18.5152 68.417 16.8119 68.2712 16.2909ZM80.3434 11.7747C79.2893 11.9988 78.3193 12.5983 77.8315 13.338L77.6857 13.5565L77.6183 13.153C77.5231 12.5983 77.3437 12.2678 77.0128 12.0492C76.6708 11.8139 76.4352 11.7523 75.9026 11.7523C75.112 11.7523 74.54 12.0884 74.3046 12.6936C74.2092 12.9402 74.2037 13.3156 74.1868 19.5686C74.17 24.4209 74.1868 26.2812 74.2317 26.5613C74.327 27.1048 74.5512 27.4186 75.011 27.6483C75.3362 27.8164 75.4148 27.8332 75.8858 27.8332C76.5699 27.8332 76.9231 27.7267 77.2259 27.4186C77.6632 26.9816 77.6689 26.9479 77.7081 24.2472L77.7361 21.8659L77.8651 22.0732C78.0333 22.3478 78.5716 22.8297 78.9585 23.065C79.6818 23.4908 80.7752 23.7317 81.6892 23.6589C84.1227 23.4628 85.6814 21.9388 86.2141 19.2324C86.287 18.857 86.3094 18.4536 86.3094 17.6635C86.3094 16.1675 86.1357 15.3271 85.6142 14.2905C84.9918 13.0522 83.9657 12.2061 82.6704 11.8587C82.0986 11.7074 80.8818 11.6626 80.3434 11.7747ZM81.106 14.453C81.9247 14.75 82.4069 15.3327 82.6817 16.3468C82.8218 16.8567 82.8218 18.448 82.6817 19.0027C82.3172 20.4595 81.2406 21.2384 79.8669 21.0479C78.8071 20.9022 78.0501 20.129 77.781 18.9186C77.6408 18.2911 77.6577 16.9015 77.809 16.3413C77.9492 15.8201 78.1903 15.3327 78.4651 15.0189C78.7118 14.7331 79.3622 14.3913 79.7883 14.3297C80.1977 14.2736 80.7584 14.324 81.106 14.453ZM87.4478 13.5116C87.302 12.6823 87.6945 12.038 88.4739 11.8307C88.614 11.7915 88.8944 11.7579 89.0962 11.7579C89.814 11.7467 90.313 12.0099 90.5709 12.5311C90.6382 12.6711 91.2719 14.2457 91.984 16.0218C92.6904 17.8036 93.2792 19.2605 93.296 19.2605C93.3129 19.2605 93.9016 17.8316 94.6081 16.0779C95.909 12.8504 96.0379 12.5647 96.3296 12.2341C96.6211 11.9035 96.9407 11.7859 97.5856 11.7803C98.0621 11.7803 98.1799 11.7971 98.3873 11.9091C98.8359 12.1501 99.1274 12.7552 99.049 13.3043C99.0044 13.6496 98.9986 13.6627 95.9704 20.529L95.9703 20.5292L95.9146 20.6556C93.9128 25.1829 93.0718 27.032 92.9091 27.2448C92.5615 27.7043 91.9054 27.9452 91.227 27.8612C90.3803 27.7548 89.9486 27.2281 89.999 26.3596C90.0159 25.9842 90.0663 25.8497 90.728 24.4041L91.4344 22.852L89.4719 18.3527C88.087 15.1758 87.487 13.7526 87.4478 13.5116ZM50.8273 30.3602C49.1508 30.5788 47.8219 31.3463 47.0089 32.5679C46.022 34.0582 45.8538 36.5068 46.6164 38.3111C47.2276 39.7622 48.534 40.8156 50.205 41.2022C50.9002 41.3647 52.7674 41.3535 53.4459 41.1799C55.4869 40.6644 56.7822 39.3589 57.2588 37.3417C57.3597 36.9103 57.3766 36.6581 57.3766 35.7897C57.3709 34.8483 57.3597 34.7027 57.2251 34.1927C56.8046 32.6351 55.9467 31.5649 54.5786 30.9093C53.4963 30.3882 52.1562 30.1921 50.8273 30.3602ZM52.6609 32.8704C53.3001 33.1169 53.7991 33.7333 54.0234 34.5401C54.158 35.0332 54.1917 36.221 54.0796 36.7982C53.8328 38.1149 53.0814 38.8825 51.9432 38.9666C50.7713 39.0563 49.8686 38.3727 49.5266 37.1288C49.3807 36.6188 49.3807 35.0724 49.5266 34.5625C49.7957 33.5876 50.362 32.9657 51.1694 32.764C51.5282 32.6742 52.2964 32.7303 52.6609 32.8704ZM62.9613 31.7498C63.4491 31.0438 64.4416 30.4723 65.4005 30.3378C65.7706 30.2874 66.3761 30.3042 66.8022 30.3827C67.7162 30.5451 68.4956 31.0998 68.9049 31.8843C69.0115 32.0916 69.1123 32.2597 69.1292 32.2597C69.146 32.2597 69.2301 32.1476 69.3142 32.0075C69.404 31.873 69.6619 31.5873 69.8861 31.3687C70.817 30.5059 72.1347 30.1417 73.5028 30.377C74.6018 30.5619 75.3196 31.0886 75.7512 32.0075C76.2055 32.9825 76.2503 33.4643 76.2503 37.084C76.2503 40.2609 76.2447 40.3282 75.9476 40.7764C75.5662 41.3535 74.3046 41.4937 73.6261 41.0341C73.4579 40.9221 73.3178 40.7652 73.2225 40.5803L73.0822 40.3057L73.0486 37.2184C73.0206 34.7194 72.9981 34.0863 72.9309 33.8565C72.6953 33.0721 72.3421 32.82 71.4618 32.82C70.5927 32.8256 70.0096 33.2626 69.6731 34.1535C69.561 34.4617 69.5553 34.5905 69.5217 37.3585L69.5196 37.5702C69.4948 39.9854 69.4902 40.4405 69.2663 40.7211C69.2143 40.7862 69.1506 40.8419 69.0719 40.9105L69.0395 40.9389C68.7367 41.2022 68.3947 41.3087 67.8339 41.2975C67.1274 41.2919 66.6789 41.0286 66.4266 40.4738C66.2977 40.1882 66.2976 40.1825 66.2696 37.0822V37.0821V37.0784C66.2416 34.0303 66.2359 33.963 66.1126 33.6549C65.9723 33.3019 65.72 33.0329 65.4172 32.9096C65.1426 32.7919 64.408 32.7919 64.0659 32.9096C63.7519 33.0161 63.3482 33.3635 63.1576 33.6828L63.1327 33.7256C63.076 33.8223 63.0299 33.9011 62.992 33.9839C62.8248 34.3494 62.82 34.7893 62.7944 37.174V37.1741L62.7931 37.3025L62.7916 37.4286C62.7608 39.9568 62.7553 40.4051 62.5402 40.7016C62.4939 40.7654 62.4378 40.8223 62.3696 40.8913L62.3613 40.8996C62.1034 41.163 61.7109 41.2975 61.1951 41.3031C60.6231 41.3031 60.2979 41.1967 59.9839 40.8941C59.9671 40.8777 59.951 40.8622 59.9353 40.8472C59.8784 40.7925 59.8296 40.7456 59.7878 40.6932C59.5357 40.377 59.5374 39.8586 59.5503 36.2167L59.5521 35.7L59.569 31.3912L59.7036 31.1223C59.9727 30.5731 60.5053 30.3209 61.2791 30.3658C62.1147 30.4162 62.6024 30.8757 62.6698 31.6713C62.681 31.873 62.709 32.0356 62.7314 32.0356C62.7482 32.0299 62.8548 31.901 62.9613 31.7498ZM82.7826 30.377C80.6911 30.702 78.9921 32.2205 78.5043 34.1927C78.3417 34.8315 78.3137 35.106 78.3193 35.8961C78.3249 37.5266 78.8015 38.7817 79.7883 39.7567C80.5846 40.5467 81.678 41.0565 83.0069 41.2639C83.7919 41.3815 85.3731 41.3368 86.1469 41.1687C87.1506 40.9557 88.0758 40.5075 88.3392 40.104C88.5356 39.8071 88.6252 39.3364 88.5356 39.0394C88.4402 38.7089 88.1374 38.3951 87.829 38.3111C87.5262 38.227 87.33 38.2607 86.674 38.5128C85.7824 38.8546 85.2946 38.9498 84.3807 38.9498C83.6404 38.9498 83.5283 38.9386 83.1247 38.7985C82.1266 38.4511 81.6051 37.8235 81.3808 36.7029L81.3471 36.5237L84.7843 36.5068L85.1212 36.5054C87.9833 36.4928 88.3686 36.491 88.5602 36.2977C88.59 36.2678 88.6151 36.233 88.6442 36.1929C88.6508 36.1839 88.6574 36.1746 88.6644 36.1651C88.771 36.0249 88.7822 35.9353 88.771 35.4198C88.7318 33.386 87.8683 31.7778 86.3711 30.9374C85.3899 30.3939 84.0498 30.1809 82.7826 30.377ZM84.8909 32.6126C85.2833 32.8032 85.631 33.1673 85.8384 33.6212C85.9842 33.9238 86.1189 34.4953 86.1189 34.7923C86.1189 34.8875 85.9675 34.8931 83.7302 34.8931H81.3416L81.3752 34.6802C81.5041 33.9518 81.9079 33.2234 82.3901 32.8592C82.8274 32.5286 83.2256 32.4278 83.9601 32.4446C84.4983 32.4614 84.6161 32.4782 84.8909 32.6126ZM90.5541 32.9881C90.8681 31.6209 92.2756 30.6124 94.2268 30.3602C95.5277 30.1977 97.036 30.3882 98.135 30.8589C98.9592 31.2175 99.2003 31.4752 99.2003 32.0075C99.2003 32.5342 98.8808 33.0106 98.4322 33.1562C98.1574 33.2458 97.978 33.2122 97.3108 32.9657C96.464 32.6463 95.8753 32.523 95.2024 32.523C94.2829 32.523 93.7333 32.7303 93.4587 33.1785C93.3072 33.4251 93.3128 33.8678 93.481 34.1088C93.6998 34.4393 93.9801 34.5346 95.5949 34.8147C96.4136 34.9548 97.2714 35.1341 97.5013 35.2125C98.5556 35.5599 99.2116 36.1763 99.4415 37.0448C99.5368 37.3922 99.5424 38.2494 99.4583 38.6585C99.2116 39.8351 98.1911 40.754 96.6828 41.1462C95.595 41.432 93.481 41.3872 92.2026 41.051C90.8906 40.7092 90.2626 40.2049 90.2738 39.4877C90.2793 39.0451 90.4476 38.7369 90.7952 38.5296C91.1036 38.3503 91.4176 38.3727 92.0624 38.6192C92.954 38.961 93.6157 39.1011 94.5183 39.1347C95.4436 39.1739 95.7856 39.1179 96.1724 38.8713C96.6322 38.58 96.7949 38.0253 96.5313 37.6331C96.3014 37.2857 96.0491 37.2016 94.4287 36.9046C92.6905 36.5853 92.2026 36.4396 91.6531 36.0698C90.8289 35.5207 90.4924 34.8596 90.4924 33.8173C90.4924 33.498 90.5205 33.1281 90.5541 32.9881Z" fill="#F15858"/>
</g>
<defs>
<clipPath id="clip0_36717_66872">
<rect width="100" height="48.8536" fill="white" transform="translate(0 0.828125)"/>
</clipPath>
</defs>
</svg>
